<svg width="202" height="188" viewBox="0 0 202 188" fill="none" xmlns="http://www.w3.org/2000/svg">
<path d="M70.3294 179V165.368H64.9534V162.2H79.5934V165.368H74.2174V179H70.3294ZM89.4194 165.896C90.4434 165.896 91.3554 166.104 92.1554 166.52C92.9714 166.92 93.6114 167.544 94.0754 168.392C94.5394 169.224 94.7714 170.296 94.7714 171.608V179H91.0274V172.184C91.0274 171.144 90.7954 170.376 90.3314 169.88C89.8834 169.384 89.2434 169.136 88.4114 169.136C87.8194 169.136 87.2834 169.264 86.8034 169.52C86.3394 169.76 85.9714 170.136 85.6994 170.648C85.4434 171.16 85.3154 171.816 85.3154 172.616V179H81.5714V161.192H85.3154V169.664L84.4754 168.584C84.9394 167.72 85.6034 167.056 86.4674 166.592C87.3314 166.128 88.3154 165.896 89.4194 165.896ZM99.7127 183.848C99.0407 183.848 98.3767 183.744 97.7207 183.536C97.0647 183.328 96.5287 183.04 96.1127 182.672L97.4807 180.008C97.7687 180.264 98.0967 180.464 98.4647 180.608C98.8487 180.752 99.2247 180.824 99.5927 180.824C100.121 180.824 100.537 180.696 100.841 180.44C101.161 180.2 101.449 179.792 101.705 179.216L102.377 177.632L102.665 177.224L107.297 166.088H110.897L105.065 179.792C104.649 180.832 104.169 181.648 103.625 182.24C103.097 182.832 102.505 183.248 101.849 183.488C101.209 183.728 100.497 183.848 99.7127 183.848ZM101.921 179.504L96.1607 166.088H100.025L104.489 176.888L101.921 179.504ZM112.574 179V166.088H116.15V169.736L115.646 168.68C116.03 167.768 116.646 167.08 117.494 166.616C118.342 166.136 119.374 165.896 120.59 165.896V169.352C120.43 169.336 120.286 169.328 120.158 169.328C120.03 169.312 119.894 169.304 119.75 169.304C118.726 169.304 117.894 169.6 117.254 170.192C116.63 170.768 116.318 171.672 116.318 172.904V179H112.574ZM120.038 179L127.526 162.2H131.366L138.878 179H134.798L128.654 164.168H130.19L124.022 179H120.038ZM123.782 175.4L124.814 172.448H133.454L134.51 175.4H123.782Z" fill="#C2231D"/>
<path d="M42.7692 32.0946C44.5549 20.0119 46.3406 0 58.8406 0C71.3406 0 75.6263 24.9206 77.4121 32.0946C79.1978 39.2687 88.8406 44.9325 88.8406 44.9325C88.8406 44.9325 96.674 50.0771 101.698 49.8411C117.769 49.0859 124.912 36.6256 128.841 23.7878C132.769 10.9499 138.897 -1.14945 148.841 1.51034C157.026 3.69994 158.484 23.7878 158.484 23.7878C158.484 23.7878 164.198 61.5462 158.484 85.334C152.769 109.122 145.983 123.092 129.198 135.175C112.412 147.258 109.198 131.777 109.198 131.777C109.198 131.777 105.626 98.927 103.841 94.0184C98.8819 80.3878 95.2692 130.644 95.2692 130.644C94.5549 146.125 83.8406 139.706 69.5549 130.644C55.2692 121.582 45.9836 99.3046 42.7692 83.446C39.5549 67.5875 40.9835 44.1773 42.7692 32.0946Z" fill="url(#paint0_linear_64_1317)"/>
<g filter="url(#filter0_d_64_1317)">
<path d="M159.536 26.3436C163.61 27.3847 167.455 28.5305 171.037 29.7743C180.074 32.9124 187.601 36.7179 192.928 41.0917C198.234 45.448 201.714 50.6849 201.714 56.6376C201.714 62.5902 198.234 67.8271 192.928 72.1835C187.601 76.5572 180.073 80.3628 171.037 83.5009C167.495 84.7308 163.696 85.8636 159.672 86.8954C160.141 84.8078 160.527 82.6242 160.841 80.3768C163.726 79.5816 166.474 78.7338 169.068 77.8329C177.74 74.8215 184.544 71.304 189.12 67.5468C193.718 63.772 195.714 60.0689 195.714 56.6376C195.714 53.2063 193.718 49.5032 189.12 45.7284C184.544 41.9712 177.74 38.4537 169.068 35.4423C166.324 34.4894 163.41 33.592 160.341 32.7577C160.32 32.5723 160.301 32.3898 160.28 32.2108C160.056 30.248 159.855 28.6735 159.709 27.5887C159.636 27.0478 159.577 26.6286 159.536 26.3436ZM42.9512 26.1473C42.5968 28.4016 42.2946 30.5873 42.0107 32.5887C38.7076 33.4713 35.5785 34.4237 32.6455 35.4423C23.9738 38.4537 17.1701 41.9711 12.5938 45.7284C7.9963 49.5031 6.00005 53.2063 6 56.6376C6.00005 60.0689 7.99621 63.772 12.5938 67.5468C17.1701 71.3041 23.9738 74.8214 32.6455 77.8329C35.2435 78.7351 37.9955 79.5845 40.8857 80.3807C41.135 82.2977 41.4322 84.1495 41.7891 85.91C41.8544 86.2322 41.9249 86.5564 41.9951 86.8837C37.9891 85.8551 34.2055 84.7259 30.6777 83.5009C21.6412 80.3628 14.1133 76.5573 8.78613 72.1835C3.48043 67.8272 4.75819e-05 62.59 0 56.6376C5.05555e-05 50.6851 3.48043 45.448 8.78613 41.0917C14.1133 36.7179 21.6413 32.9124 30.6777 29.7743C34.485 28.4522 38.5897 27.2396 42.9512 26.1473ZM100.857 19.6552C110.773 19.6552 120.365 20.1637 129.427 21.1112C128.877 22.6392 128.363 24.1976 127.885 25.7606C127.764 26.1564 127.639 26.5512 127.512 26.9452C119.06 26.1061 110.118 25.6552 100.857 25.6552C92.4836 25.6552 84.3701 26.0236 76.6436 26.7147C76.1852 24.8735 75.6514 22.8756 75.0264 20.8407C83.2746 20.068 91.9345 19.6552 100.857 19.6552Z" fill="url(#paint1_linear_64_1317)"/>
</g>
<g filter="url(#filter1_d_64_1317)">
<path d="M198.715 56.6376C198.715 61.1002 196.183 65.5192 191.266 69.6421C186.348 73.7651 179.14 77.5113 170.053 80.6669C160.966 83.8224 150.178 86.3256 138.306 88.0334C126.433 89.7411 113.708 90.6201 100.857 90.6201C88.0066 90.6201 75.2816 89.7411 63.4091 88.0334C51.5365 86.3256 40.7488 83.8224 31.6619 80.6669C22.5751 77.5113 15.367 73.7651 10.4492 69.6421C5.53139 65.5192 3.00024 61.1002 3.00024 56.6376" stroke="url(#paint2_linear_64_1317)" stroke-width="6"/>
</g>
<path d="M117.607 84.4416C123.192 87.1898 127.964 123.333 131.536 107.474C135.107 91.6157 153.827 89.8415 149.432 85.3785C147.467 83.3834 140.861 84.4416 139.075 77.4492C135.861 66.8769 132.25 54.7635 131.536 63.2969C130.821 71.8304 112.022 81.6935 117.607 84.4416Z" fill="white"/>
<defs>
<filter id="filter0_d_64_1317" x="0" y="19.6552" width="201.714" height="69.2402" filterUnits="userSpaceOnUse" color-interpolation-filters="sRGB">
<feFlood flood-opacity="0" result="BackgroundImageFix"/>
<feColorMatrix in="SourceAlpha" type="matrix" values="0 0 0 0 0 0 0 0 0 0 0 0 0 0 0 0 0 0 127 0" result="hardAlpha"/>
<feOffset dy="2"/>
<feComposite in2="hardAlpha" operator="out"/>
<feColorMatrix type="matrix" values="0 0 0 0 0 0 0 0 0 0 0 0 0 0 0 0 0 0 0.7 0"/>
<feBlend mode="normal" in2="BackgroundImageFix" result="effect1_dropShadow_64_1317"/>
<feBlend mode="normal" in="SourceGraphic" in2="effect1_dropShadow_64_1317" result="shape"/>
</filter>
<filter id="filter1_d_64_1317" x="0.000244141" y="56.6376" width="201.714" height="38.9825" filterUnits="userSpaceOnUse" color-interpolation-filters="sRGB">
<feFlood flood-opacity="0" result="BackgroundImageFix"/>
<feColorMatrix in="SourceAlpha" type="matrix" values="0 0 0 0 0 0 0 0 0 0 0 0 0 0 0 0 0 0 127 0" result="hardAlpha"/>
<feOffset dy="2"/>
<feComposite in2="hardAlpha" operator="out"/>
<feColorMatrix type="matrix" values="0 0 0 0 0 0 0 0 0 0 0 0 0 0 0 0 0 0 0.7 0"/>
<feBlend mode="normal" in2="BackgroundImageFix" result="effect1_dropShadow_64_1317"/>
<feBlend mode="normal" in="SourceGraphic" in2="effect1_dropShadow_64_1317" result="shape"/>
</filter>
<linearGradient id="paint0_linear_64_1317" x1="0.500279" y1="16.6137" x2="167.752" y2="143.453" gradientUnits="userSpaceOnUse">
<stop stop-color="#FF715E"/>
<stop offset="1" stop-color="#A70000"/>
</linearGradient>
<linearGradient id="paint1_linear_64_1317" x1="201.714" y1="-87.9292" x2="69.6785" y2="131.134" gradientUnits="userSpaceOnUse">
<stop stop-color="#1567FF"/>
<stop offset="1" stop-color="#FD290C"/>
</linearGradient>
<linearGradient id="paint2_linear_64_1317" x1="198.715" y1="-86.0891" x2="62.7709" y2="130.416" gradientUnits="userSpaceOnUse">
<stop stop-color="#1567FF"/>
<stop offset="1" stop-color="#FD290C"/>
</linearGradient>
</defs>
</svg>
